<?xml version="1.0" encoding="utf-8"?>
<!-- Generator: Adobe Illustrator 19.0.0, SVG Export Plug-In . SVG Version: 6.00 Build 0)  -->
<svg version="1.1" id="Layer_1" xmlns="http://www.w3.org/2000/svg" xmlns:xlink="http://www.w3.org/1999/xlink" x="0px" y="0px"
	 viewBox="0 0 96 96" style="enable-background:new 0 0 96 96;" xml:space="preserve">
<style type="text/css">
	.st0{fill:#333333;}
</style>
<g id="XMLID_2_">
	<path id="XMLID_13_" class="st0" d="M24.4,65.7h31.4v-3.9H24.4V65.7z M24.4,50h31.4V46H24.4V50z M72.6,63.7c0-0.8-0.3-1.5-0.9-2.1
		s-1.3-0.9-2.1-0.9s-1.5,0.3-2.1,0.9s-0.9,1.3-0.9,2.1s0.3,1.5,0.9,2.1s1.3,0.9,2.1,0.9s1.5-0.3,2.1-0.9S72.6,64.5,72.6,63.7z
		 M24.4,34.3h31.4v-3.9H24.4V34.3z M72.6,48c0-0.8-0.3-1.5-0.9-2.1c-0.6-0.6-1.3-0.9-2.1-0.9s-1.5,0.3-2.1,0.9
		c-0.6,0.6-0.9,1.3-0.9,2.1s0.3,1.5,0.9,2.1c0.6,0.6,1.3,0.9,2.1,0.9s1.5-0.3,2.1-0.9C72.3,49.5,72.6,48.8,72.6,48z M72.6,32.3
		c0-0.8-0.3-1.5-0.9-2.1c-0.6-0.6-1.3-0.9-2.1-0.9s-1.5,0.3-2.1,0.9c-0.6,0.6-0.9,1.3-0.9,2.1s0.3,1.5,0.9,2.1s1.3,0.9,2.1,0.9
		s1.5-0.3,2.1-0.9S72.6,33.1,72.6,32.3z M75.5,57.8v11.8h-55V57.8H75.5z M75.5,42.1v11.8h-55V42.1H75.5z M75.5,26.4v11.8h-55V26.4
		H75.5z"/>
</g>
</svg>
