<?xml version="1.0" encoding="utf-8"?>
<!-- Generator: Adobe Illustrator 22.1.0, SVG Export Plug-In . SVG Version: 6.00 Build 0)  -->
<svg version="1.1" xmlns="http://www.w3.org/2000/svg" xmlns:xlink="http://www.w3.org/1999/xlink" x="0px" y="0px"
	 viewBox="0 0 100 100" style="enable-background:new 0 0 100 100;" xml:space="preserve">
<style type="text/css">
	.st0{enable-background:new    ;}
	.st1{fill:#414042;}
	.st2{fill:none;stroke:#000000;stroke-miterlimit:10;}
	.st3{fill:#EEEEEE;}
	.st4{clip-path:url(#SVGID_6_);fill:url(#SVGID_7_);}
	.st5{clip-path:url(#SVGID_9_);fill:url(#SVGID_10_);}
	.st6{clip-path:url(#SVGID_12_);fill:url(#SVGID_13_);}
	.st7{fill:#000002;}
	.st8{fill:#251F20;}
	.st9{fill:#E1251B;}
	.st10{fill:none;stroke:#FFFFFF;stroke-linecap:round;stroke-miterlimit:10;}
	.st11{fill:none;stroke:#FFFFFF;stroke-linecap:round;stroke-miterlimit:10;stroke-dasharray:0,2.9971;}
	.st12{fill:none;stroke:#FFFFFF;stroke-linecap:round;stroke-miterlimit:10;stroke-dasharray:0,3;}
	.st13{fill:none;stroke:#FFFFFF;stroke-miterlimit:10;}
	.st14{fill:none;stroke:#FFFFFF;stroke-linecap:square;stroke-miterlimit:10;}
	.st15{fill:#FFFFFF;}
	.st16{fill-rule:evenodd;clip-rule:evenodd;fill:#EC1C24;}
	.st17{fill-rule:evenodd;clip-rule:evenodd;}
	.st18{fill:#76B900;}
	.st19{fill:#004831;}
	.st20{fill:none;stroke:#FFFFFF;stroke-linecap:round;stroke-linejoin:round;stroke-miterlimit:10;}
	.st21{fill:#004831;stroke:#FFFFFF;stroke-linecap:round;stroke-miterlimit:10;}
	.st22{fill:none;stroke:#FFFFFF;stroke-linecap:round;stroke-linejoin:round;}
	.st23{fill:none;stroke:#FFFFFF;stroke-linecap:round;stroke-linejoin:round;stroke-dasharray:0,3.0032;}
	.st24{fill:none;stroke:#FFFFFF;stroke-linecap:round;stroke-linejoin:round;stroke-dasharray:0,2.963;}
	.st25{fill:none;stroke:#FFFFFF;stroke-linecap:round;stroke-linejoin:round;stroke-dasharray:0,2.9412;}
	.st26{fill:none;stroke:#FFFFFF;stroke-linecap:round;stroke-linejoin:round;stroke-dasharray:0,3.2917;}
	.st27{fill:none;stroke:#FFFFFF;stroke-linecap:round;stroke-linejoin:round;stroke-dasharray:0,2.8155;}
</style>
<g id="Layer_1">
	<g>
		<g class="st0">
			<defs>
				<polygon id="SVGID_1_" class="st0" points="10.7,55.4 49.4,33 89.3,56 50.6,78.5 				"/>
			</defs>
			<use xlink:href="#SVGID_1_"  style="overflow:visible;fill:#76B900;"/>
			<clipPath id="SVGID_2_">
				<use xlink:href="#SVGID_1_"  style="overflow:visible;"/>
			</clipPath>
		</g>
	</g>
	<g class="st0">
		<defs>
			<polygon id="SVGID_3_" class="st0" points="10.7,57.9 10.7,53.6 49.4,33 89.3,54.2 89.3,58.4 50.6,80.9 			"/>
		</defs>
		<use xlink:href="#SVGID_3_"  style="overflow:visible;fill:#004831;"/>
		<clipPath id="SVGID_4_">
			<use xlink:href="#SVGID_3_"  style="overflow:visible;"/>
		</clipPath>
	</g>
	<g>
		<g class="st0">
			<defs>
				<polygon id="SVGID_14_" class="st0" points="10.7,53.6 51.4,31.3 89.3,54.2 50.6,76.7 				"/>
			</defs>
			<use xlink:href="#SVGID_14_"  style="overflow:visible;fill:#004831;"/>
			<clipPath id="SVGID_6_">
				<use xlink:href="#SVGID_14_"  style="overflow:visible;"/>
			</clipPath>
		</g>
	</g>
	<g class="st0">
		<defs>
			<polygon id="SVGID_16_" class="st0" points="10.7,53.6 51.1,31.1 89.3,54.2 50.6,76.7 			"/>
		</defs>
		<use xlink:href="#SVGID_16_"  style="overflow:visible;fill:#76B900;"/>
		<clipPath id="SVGID_7_">
			<use xlink:href="#SVGID_16_"  style="overflow:visible;"/>
		</clipPath>
	</g>
	<path class="st15" d="M52,41l-2.3,1.3L47.3,41l2.3-1.3L52,41 M55.2,42.8l-2.3-1.3l-2.3,1.3l2.3,1.3L55.2,42.8 M48.8,42.8l-2.3-1.3
		l-2.3,1.3l2.3,1.3L48.8,42.8 M52.1,44.7l-2.3-1.3l-2.3,1.3l2.3,1.3L52.1,44.7 M45.7,44.6l-2.3-1.3L41,44.6l2.3,1.3L45.7,44.6
		 M48.9,46.5l-2.3-1.3l-2.3,1.3l2.3,1.3L48.9,46.5 M42.5,46.5l-2.3-1.3l-2.3,1.3l2.3,1.3L42.5,46.5 M45.8,48.3L43.4,47l-2.3,1.3
		l2.3,1.3L45.8,48.3 M39.4,48.3L37,47l-2.3,1.3l2.3,1.3L39.4,48.3 M42.6,50.2l-2.3-1.3L38,50.2l2.3,1.3L42.6,50.2 M58.5,44.7
		l-2.3-1.3l-2.3,1.3l2.3,1.3L58.5,44.7 M61.7,46.6l-2.3-1.3l-2.3,1.3l2.3,1.3L61.7,46.6 M55.3,46.5L53,45.2l-2.3,1.3l2.3,1.3
		L55.3,46.5 M58.6,48.4l-2.3-1.3l-2.3,1.3l2.3,1.3L58.6,48.4 M52.2,48.4L49.8,47l-2.3,1.3l2.3,1.3L52.2,48.4 M55.4,50.2l-2.3-1.3
		l-2.3,1.3l2.3,1.3L55.4,50.2 M49,50.2l-2.3-1.3l-2.3,1.3l2.3,1.3L49,50.2 M52.2,52.1l-2.3-1.3l-2.3,1.3l2.3,1.3L52.2,52.1 M45.8,52
		l-2.3-1.3L41.2,52l2.3,1.3L45.8,52 M49.1,53.9l-2.3-1.3l-2.3,1.3l2.3,1.3L49.1,53.9 M64.9,48.4l-2.3-1.3l-2.3,1.3l2.3,1.3
		L64.9,48.4 M68.2,50.3L65.9,49l-2.3,1.3l2.3,1.3L68.2,50.3 M61.8,50.3l-2.3-1.3l-2.3,1.3l2.3,1.3L61.8,50.3 M65,52.1l-2.3-1.3
		l-2.3,1.3l2.3,1.3L65,52.1 M58.6,52.1l-2.3-1.3L54,52.1l2.3,1.3L58.6,52.1 M61.9,54l-2.3-1.3L57.2,54l2.3,1.3L61.9,54 M55.5,53.9
		l-2.3-1.3l-2.3,1.3l2.3,1.3L55.5,53.9 M58.7,55.8l-2.3-1.3l-2.3,1.3l2.3,1.3L58.7,55.8 M52.3,55.8L50,54.4l-2.3,1.3l2.3,1.3
		L52.3,55.8 M55.6,57.7l-2.3-1.3l-2.3,1.3l2.3,1.3L55.6,57.7 M71.4,52.2l-2.3-1.3l-2.3,1.3l2.3,1.3L71.4,52.2 M74.7,54.1l-2.3-1.3
		L70,54.1l2.3,1.3L74.7,54.1 M68.3,54l-2.3-1.3L63.6,54l2.3,1.3L68.3,54 M71.5,55.9l-2.3-1.3l-2.3,1.3l2.3,1.3L71.5,55.9 M65.1,55.9
		l-2.3-1.3l-2.3,1.3l2.3,1.3L65.1,55.9 M68.3,57.7L66,56.4l-2.3,1.3l2.3,1.3L68.3,57.7 M62,57.7l-2.3-1.3l-2.3,1.3l2.3,1.3L62,57.7
		 M65.2,59.6l-2.3-1.3l-2.3,1.3l2.3,1.3L65.2,59.6 M58.8,59.5l-2.3-1.3l-2.3,1.3l2.3,1.3L58.8,59.5 M62,61.4L59.7,60l-2.3,1.3
		l2.3,1.3L62,61.4 M36.2,50.1l-2.3-1.3l-2.3,1.3l2.3,1.3L36.2,50.1 M39.5,52l-2.3-1.3L34.8,52l2.3,1.3L39.5,52 M42.7,53.9l-2.3-1.3
		l-2.3,1.3l2.3,1.3L42.7,53.9 M46,55.7l-2.3-1.3l-2.3,1.3l2.3,1.3L46,55.7 M49.2,57.6l-2.3-1.3l-2.3,1.3l2.3,1.3L49.2,57.6
		 M52.4,59.5l-2.3-1.3l-2.3,1.3l2.3,1.3L52.4,59.5 M55.7,61.3L53.3,60L51,61.3l2.3,1.3L55.7,61.3 M58.9,63.2l-2.3-1.3l-2.3,1.3
		l2.3,1.3L58.9,63.2 M33.1,51.9l-2.3-1.3l-2.3,1.3l2.3,1.3L33.1,51.9 M36.4,53.8L34,52.5l-2.3,1.3l2.3,1.3L36.4,53.8 M39.6,55.7
		l-2.3-1.3l-2.3,1.3l2.3,1.3L39.6,55.7 M42.8,57.5l-2.3-1.3l-2.3,1.3l2.3,1.3L42.8,57.5 M46.1,59.4l-2.3-1.3l-2.3,1.3l2.3,1.3
		L46.1,59.4 M49.3,61.3L47,59.9l-2.3,1.3l2.3,1.3L49.3,61.3 M52.5,63.2l-2.3-1.3l-2.3,1.3l2.3,1.3L52.5,63.2 M55.8,65l-2.3-1.3
		L51.1,65l2.3,1.3L55.8,65 M30,53.8l-2.3-1.3l-2.3,1.3l2.3,1.3L30,53.8 M33.2,55.6l-2.3-1.3l-2.3,1.3l2.3,1.3L33.2,55.6 M36.5,57.5
		l-2.3-1.3l-2.3,1.3l2.3,1.3L36.5,57.5 M39.7,59.4L37.4,58l-2.3,1.3l2.3,1.3L39.7,59.4 M42.9,61.2l-2.3-1.3l-2.3,1.3l2.3,1.3
		L42.9,61.2 M46.2,63.1l-2.3-1.3l-2.3,1.3l2.3,1.3L46.2,63.1 M49.4,65l-2.3-1.3L44.8,65l2.3,1.3L49.4,65 M52.7,66.8l-2.3-1.3
		L48,66.8l2.3,1.3L52.7,66.8"/>
	<g>
		<g>
			<g class="st0">
				<defs>
					<polygon id="SVGID_18_" class="st0" points="10.1,35.4 48.8,12.9 88.7,35.9 50,58.4 					"/>
				</defs>
				<use xlink:href="#SVGID_18_"  style="overflow:visible;fill:#76B900;"/>
				<clipPath id="SVGID_9_">
					<use xlink:href="#SVGID_18_"  style="overflow:visible;"/>
				</clipPath>
			</g>
		</g>
		<g class="st0">
			<defs>
				<polygon id="SVGID_20_" class="st0" points="10.1,37.8 10.1,33.6 48.8,12.9 88.7,34.1 88.7,38.4 50,60.8 				"/>
			</defs>
			<use xlink:href="#SVGID_20_"  style="overflow:visible;fill:#004831;"/>
			<clipPath id="SVGID_10_">
				<use xlink:href="#SVGID_20_"  style="overflow:visible;"/>
			</clipPath>
		</g>
		<g>
			<g class="st0">
				<defs>
					<polygon id="SVGID_22_" class="st0" points="10.1,33.6 50.9,11.3 88.7,34.1 50,56.6 					"/>
				</defs>
				<use xlink:href="#SVGID_22_"  style="overflow:visible;fill:#004831;"/>
				<clipPath id="SVGID_12_">
					<use xlink:href="#SVGID_22_"  style="overflow:visible;"/>
				</clipPath>
			</g>
		</g>
		<g class="st0">
			<defs>
				<polygon id="SVGID_24_" class="st0" points="10.1,33.6 50.5,11.1 88.7,34.1 50,56.6 				"/>
			</defs>
			<use xlink:href="#SVGID_24_"  style="overflow:visible;fill:#76B900;"/>
			<clipPath id="SVGID_13_">
				<use xlink:href="#SVGID_24_"  style="overflow:visible;"/>
			</clipPath>
		</g>
		<path class="st15" d="M51.4,20.9l-2.3,1.3l-2.3-1.3l2.3-1.3L51.4,20.9 M54.6,22.8l-2.3-1.3L50,22.8l2.3,1.3L54.6,22.8 M48.3,22.7
			l-2.3-1.3l-2.3,1.3l2.3,1.3L48.3,22.7 M51.5,24.6l-2.3-1.3l-2.3,1.3l2.3,1.3L51.5,24.6 M45.1,24.6l-2.3-1.3l-2.3,1.3l2.3,1.3
			L45.1,24.6 M48.3,26.4L46,25.1l-2.3,1.3l2.3,1.3L48.3,26.4 M41.9,26.4l-2.3-1.3l-2.3,1.3l2.3,1.3L41.9,26.4 M45.2,28.3l-2.3-1.3
			l-2.3,1.3l2.3,1.3L45.2,28.3 M38.8,28.2l-2.3-1.3l-2.3,1.3l2.3,1.3L38.8,28.2 M42,30.1l-2.3-1.3l-2.3,1.3l2.3,1.3L42,30.1
			 M57.9,24.6l-2.3-1.3l-2.3,1.3l2.3,1.3L57.9,24.6 M61.1,26.5l-2.3-1.3l-2.3,1.3l2.3,1.3L61.1,26.5 M54.7,26.5l-2.3-1.3l-2.3,1.3
			l2.3,1.3L54.7,26.5 M58,28.3L55.6,27l-2.3,1.3l2.3,1.3L58,28.3 M51.6,28.3L49.2,27l-2.3,1.3l2.3,1.3L51.6,28.3 M54.8,30.2
			l-2.3-1.3l-2.3,1.3l2.3,1.3L54.8,30.2 M48.4,30.1l-2.3-1.3l-2.3,1.3l2.3,1.3L48.4,30.1 M51.7,32l-2.3-1.3L47,32l2.3,1.3L51.7,32
			 M45.3,32l-2.3-1.3L40.6,32l2.3,1.3L45.3,32 M48.5,33.8l-2.3-1.3l-2.3,1.3l2.3,1.3L48.5,33.8 M64.4,28.4L62,27l-2.3,1.3l2.3,1.3
			L64.4,28.4 M67.6,30.2l-2.3-1.3l-2.3,1.3l2.3,1.3L67.6,30.2 M61.2,30.2l-2.3-1.3l-2.3,1.3l2.3,1.3L61.2,30.2 M64.4,32.1l-2.3-1.3
			l-2.3,1.3l2.3,1.3L64.4,32.1 M58,32l-2.3-1.3L53.4,32l2.3,1.3L58,32 M61.3,33.9L59,32.6l-2.3,1.3l2.3,1.3L61.3,33.9 M54.9,33.9
			l-2.3-1.3l-2.3,1.3l2.3,1.3L54.9,33.9 M58.1,35.8l-2.3-1.3l-2.3,1.3l2.3,1.3L58.1,35.8 M51.7,35.7l-2.3-1.3l-2.3,1.3l2.3,1.3
			L51.7,35.7 M55,37.6l-2.3-1.3l-2.3,1.3l2.3,1.3L55,37.6 M70.8,32.1l-2.3-1.3l-2.3,1.3l2.3,1.3L70.8,32.1 M74.1,34l-2.3-1.3
			L69.4,34l2.3,1.3L74.1,34 M67.7,34l-2.3-1.3L63,34l2.3,1.3L67.7,34 M70.9,35.8l-2.3-1.3l-2.3,1.3l2.3,1.3L70.9,35.8 M64.5,35.8
			l-2.3-1.3l-2.3,1.3l2.3,1.3L64.5,35.8 M67.8,37.7l-2.3-1.3l-2.3,1.3l2.3,1.3L67.8,37.7 M61.4,37.6L59,36.3l-2.3,1.3L59,39
			L61.4,37.6 M64.6,39.5l-2.3-1.3L60,39.5l2.3,1.3L64.6,39.5 M58.2,39.5l-2.3-1.3l-2.3,1.3l2.3,1.3L58.2,39.5 M61.4,41.3L59.1,40
			l-2.3,1.3l2.3,1.3L61.4,41.3 M35.7,30.1l-2.3-1.3L31,30.1l2.3,1.3L35.7,30.1 M38.9,31.9l-2.3-1.3l-2.3,1.3l2.3,1.3L38.9,31.9
			 M42.1,33.8l-2.3-1.3l-2.3,1.3l2.3,1.3L42.1,33.8 M45.4,35.7L43,34.3l-2.3,1.3l2.3,1.3L45.4,35.7 M48.6,37.5l-2.3-1.3L44,37.5
			l2.3,1.3L48.6,37.5 M51.8,39.4l-2.3-1.3l-2.3,1.3l2.3,1.3L51.8,39.4 M55.1,41.3l-2.3-1.3l-2.3,1.3l2.3,1.3L55.1,41.3 M58.3,43.1
			L56,41.8l-2.3,1.3l2.3,1.3L58.3,43.1 M32.5,31.9l-2.3-1.3l-2.3,1.3l2.3,1.3L32.5,31.9 M35.8,33.7l-2.3-1.3l-2.3,1.3l2.3,1.3
			L35.8,33.7 M39,35.6l-2.3-1.3l-2.3,1.3l2.3,1.3L39,35.6 M42.2,37.5l-2.3-1.3l-2.3,1.3l2.3,1.3L42.2,37.5 M45.5,39.4L43.1,38
			l-2.3,1.3l2.3,1.3L45.5,39.4 M48.7,41.2l-2.3-1.3l-2.3,1.3l2.3,1.3L48.7,41.2 M52,43.1l-2.3-1.3l-2.3,1.3l2.3,1.3L52,43.1
			 M55.2,45l-2.3-1.3L50.5,45l2.3,1.3L55.2,45 M29.4,33.7l-2.3-1.3l-2.3,1.3l2.3,1.3L29.4,33.7 M32.6,35.6l-2.3-1.3L28,35.6l2.3,1.3
			L32.6,35.6 M35.9,37.4l-2.3-1.3l-2.3,1.3l2.3,1.3L35.9,37.4 M39.1,39.3L36.8,38l-2.3,1.3l2.3,1.3L39.1,39.3 M42.4,41.2L40,39.8
			l-2.3,1.3l2.3,1.3L42.4,41.2 M45.6,43l-2.3-1.3L40.9,43l2.3,1.3L45.6,43 M48.8,44.9l-2.3-1.3l-2.3,1.3l2.3,1.3L48.8,44.9
			 M52.1,46.8l-2.3-1.3l-2.3,1.3l2.3,1.3L52.1,46.8"/>
	</g>
</g>
<g id="Layer_2">
</g>
<g id="Layer_3">
</g>
</svg>
