<svg id="Layer_1" data-name="Layer 1" xmlns="http://www.w3.org/2000/svg" viewBox="0 0 512 512"><title>cloud-server-flat</title><g id="cloud-server"><path d="M512,262.75A120.49,120.49,0,0,0,391.65,142.37c-7.88,0-17.61,3.18-26.18,6l-5,1.61c-20.88-54.35-67.06-89.2-118.8-89.2A132.94,132.94,0,0,0,109.33,181.1c-2.9-.28-5.53-.39-8.1-.39a101.21,101.21,0,1,0,0,202.41h28.25l.06,0A50.83,50.83,0,0,1,113.69,353H101.24a71.09,71.09,0,1,1,0-142.18,68,68,0,0,1,9.43.73l26.84,3.55L139,188A102.8,102.8,0,0,1,241.69,90.88c48.82,0,80.08,39.61,92,73.53l7.67,21.8,22.35-5.84c3.47-.92,7.18-2.12,11.1-3.41,4.43-1.45,13.67-4.47,16.8-4.47a90.21,90.21,0,0,1,6.73,180.18,51,51,0,0,1-15.92,30.41l.06,0h9.14A120.49,120.49,0,0,0,512,262.75Z" fill="#90c8ea"/><path d="M164.12,302.22H347.9a30.9,30.9,0,1,0,0-61.8H164.12a30.9,30.9,0,1,0,0,61.8Zm4-41.49a10.57,10.57,0,1,1-10.59,10.57A10.59,10.59,0,0,1,168.16,260.73Z" fill="#90c8ea"/><path d="M347.9,314.92H164.12a30.91,30.91,0,0,0-30.94,30.9,29.84,29.84,0,0,0,.94,7.18,30.85,30.85,0,0,0,30,23.73H347.9a30.9,30.9,0,0,0,0-61.8ZM168.16,356.39a10.74,10.74,0,1,1,7.69-3.39A10.5,10.5,0,0,1,168.16,356.39Z" fill="#90c8ea"/><path d="M347.9,389.43H164.12a30.9,30.9,0,1,0,0,61.8H347.9a30.9,30.9,0,0,0,0-61.8ZM168.16,430.9a10.57,10.57,0,1,1,10.59-10.57A10.59,10.59,0,0,1,168.16,430.9Z" fill="#90c8ea"/></g></svg>